<?xml version="1.0" standalone="no"?>
<!DOCTYPE svg PUBLIC "-//W3C//DTD SVG 20010904//EN"
 "http://www.w3.org/TR/2001/REC-SVG-20010904/DTD/svg10.dtd">
<svg version="1.0" xmlns="http://www.w3.org/2000/svg"
 width="266.000000pt" height="200.000000pt" viewBox="0 0 266.000000 200.000000"
 preserveAspectRatio="xMidYMid meet">
<metadata>
Created by potrace 1.10, written by Peter Selinger 2001-2011
</metadata>
<g transform="translate(0.000000,200.000000) scale(0.100000,-0.100000)"
fill="#000000" stroke="none">
<path d="M860 1901 c-103 -33 -155 -64 -226 -135 -107 -106 -163 -237 -164
-377 0 -68 32 -196 62 -250 l22 -39 82 0 c46 0 86 -5 89 -10 4 -6 11 -7 17 -4
8 5 9 1 4 -11 -5 -15 -4 -16 8 -6 12 10 9 18 -25 48 -21 19 -53 64 -70 99
-115 232 22 504 278 554 211 41 418 -107 454 -326 18 -112 -17 -231 -92 -309
-16 -17 -29 -37 -29 -45 0 -11 3 -11 12 -2 7 7 44 12 94 12 l83 0 29 63 c42
89 56 156 49 251 -14 230 -150 407 -367 481 -92 31 -225 34 -310 6z m266 -32
c14 -11 16 -11 10 0 -6 9 0 8 17 -4 14 -9 30 -17 34 -17 21 0 81 -32 107 -56
16 -15 25 -20 21 -12 -5 8 8 -3 29 -25 21 -22 43 -39 49 -37 7 2 9 0 5 -4 -4
-4 8 -28 26 -53 48 -65 80 -176 79 -276 0 -92 -19 -184 -39 -192 -8 -3 -13
-10 -12 -17 1 -6 -3 -21 -10 -33 -10 -18 -22 -23 -52 -23 -59 0 -58 14 11 98
7 8 6 12 -3 12 -10 0 -10 2 1 9 7 5 10 14 7 20 -4 6 -3 11 2 11 9 0 12 15 13
57 1 13 5 21 9 18 10 -6 8 15 -3 33 -5 7 -3 12 5 13 10 0 11 2 0 6 -9 3 -10 9
-2 18 7 9 6 16 -5 25 -8 7 -12 17 -8 24 11 17 12 37 2 30 -8 -5 -13 9 -10 28
0 4 -13 30 -29 58 -17 28 -28 56 -25 61 4 5 -2 6 -12 2 -16 -6 -17 -5 -3 12 9
12 10 16 2 11 -13 -8 -76 37 -66 47 3 3 -4 8 -15 12 -12 3 -21 11 -21 16 0 6
-4 7 -10 4 -5 -3 -10 -2 -10 2 0 20 -166 70 -195 59 -8 -3 -15 -2 -15 2 0 4
-9 8 -20 9 -13 1 -18 -2 -14 -9 4 -7 2 -8 -4 -4 -16 10 -131 -22 -164 -46 -15
-10 -28 -17 -28 -13 0 3 -6 0 -14 -7 -8 -7 -11 -17 -8 -22 3 -5 0 -6 -6 -2 -6
3 -22 -8 -37 -26 -15 -18 -25 -28 -22 -23 3 6 -3 11 -13 11 -14 0 -16 -3 -8
-13 7 -9 7 -13 -1 -13 -7 0 -9 -5 -5 -12 5 -8 2 -9 -10 -5 -9 4 -15 3 -12 -2
3 -5 -5 -33 -18 -62 -13 -30 -22 -62 -20 -72 2 -14 -2 -17 -14 -12 -13 5 -14
3 -6 -5 14 -14 6 -53 -8 -44 -6 4 -5 -3 1 -15 10 -18 9 -21 -6 -21 -15 0 -15
-2 -3 -9 8 -6 18 -7 24 -4 5 3 6 1 2 -5 -4 -6 -14 -9 -24 -6 -16 5 -16 5 1 -6
10 -7 17 -24 17 -43 0 -18 12 -59 26 -92 15 -33 27 -68 27 -77 1 -9 4 -15 8
-12 4 2 9 -3 13 -11 4 -12 -4 -15 -37 -15 -46 0 -76 23 -71 53 1 9 -1 17 -5
17 -13 0 -31 49 -24 67 4 10 2 14 -4 10 -7 -4 -9 32 -8 111 3 132 8 168 23
165 6 -1 9 9 7 22 -1 15 10 45 29 73 17 26 36 58 43 72 l13 25 -6 -25 c-5 -22
-3 -21 15 8 12 18 28 35 36 38 8 4 12 10 9 15 -3 5 1 9 10 9 8 0 16 3 18 8 7
16 71 54 93 56 13 0 21 5 17 10 -3 5 2 7 11 3 10 -3 17 -2 17 3 0 6 3 9 8 8 4
0 14 2 22 5 51 21 219 18 246 -4z"/>
<path d="M905 1727 c-99 -33 -175 -99 -221 -192 -25 -52 -29 -71 -29 -145 0
-101 27 -170 95 -244 l43 -46 212 0 212 0 47 50 c71 76 91 127 91 235 0 77 -4
98 -27 147 -60 128 -163 198 -302 204 -51 3 -96 -1 -121 -9z m193 -36 c2 -5 9
-8 15 -6 7 3 35 -9 62 -25 28 -16 47 -30 43 -30 -3 0 10 -17 30 -37 44 -45 65
-80 57 -93 -4 -6 1 -13 10 -16 11 -5 13 -10 5 -19 -8 -9 -8 -15 0 -20 21 -13
4 -175 -20 -183 -5 -2 -8 -8 -4 -13 3 -5 0 -9 -5 -9 -6 0 -10 -3 -9 -7 2 -5
-5 -19 -15 -33 -9 -13 -17 -21 -17 -16 0 5 -10 -6 -23 -25 -22 -33 -25 -34
-90 -35 -77 -1 -91 17 -33 41 19 8 41 24 50 36 8 12 19 18 24 15 6 -3 9 2 7
11 -1 10 0 22 3 27 9 17 1 110 -11 125 -10 12 -9 13 3 7 8 -4 7 -1 -4 8 -16
13 -17 19 -6 45 7 19 17 28 24 24 6 -4 5 0 -2 9 -7 9 -9 19 -4 22 10 6 -28 96
-41 96 -5 0 -5 -6 -1 -12 4 -7 -5 -1 -20 14 -16 15 -32 25 -36 23 -5 -3 -11 4
-15 15 -8 26 -45 61 -57 54 -4 -3 -8 0 -8 6 0 7 -6 8 -19 0 -26 -13 -31 -13
-25 3 6 16 127 14 132 -2z m-142 -8 c-2 -30 -25 -62 -56 -78 -48 -25 -71 -68
-71 -131 0 -31 5 -62 13 -72 11 -13 11 -15 -2 -7 -12 6 -13 5 -2 -6 15 -17 16
-43 0 -33 -7 4 -8 3 -4 -4 4 -7 3 -12 -1 -12 -13 0 -14 -49 -3 -71 9 -15 8
-17 -7 -12 -12 5 -11 1 6 -18 49 -54 66 -69 76 -69 18 0 34 -21 28 -36 -3 -9
-21 -14 -52 -14 -56 0 -93 9 -85 21 3 5 0 9 -6 9 -7 0 -9 9 -5 23 7 22 7 22
-9 2 -8 -11 -16 -17 -17 -12 -1 4 -2 10 -3 15 -1 4 -12 22 -23 41 -12 19 -20
38 -17 43 3 4 0 8 -6 8 -7 0 -10 6 -7 14 3 8 3 17 -1 20 -3 4 -7 14 -9 24 -4
19 -6 122 -3 137 2 6 2 13 1 18 0 4 3 7 8 7 5 0 12 7 15 16 3 8 2 12 -4 9 -5
-3 6 16 23 43 18 27 39 48 47 48 9 -1 14 6 12 17 -2 9 3 17 9 17 7 0 20 7 29
15 18 16 86 43 111 44 10 1 16 -6 15 -16z m84 -63 c0 -38 2 -40 29 -40 44 0
80 -37 83 -85 3 -38 2 -40 -29 -43 -29 -3 -32 -1 -35 30 l-3 33 -68 3 c-78 3
-97 -6 -97 -50 0 -34 2 -35 109 -47 97 -11 120 -26 128 -89 11 -81 -21 -132
-82 -132 -34 0 -35 -1 -35 -40 0 -39 -1 -40 -36 -40 -35 0 -35 1 -32 38 3 36
2 37 -36 42 -47 6 -75 39 -83 98 l-6 42 37 0 c35 0 36 -1 36 -35 0 -41 8 -46
77 -47 89 -2 90 -1 95 37 2 19 1 41 -3 47 -4 7 -44 15 -90 19 -108 10 -133 27
-137 97 -4 73 16 109 70 119 42 8 43 9 40 46 -3 36 -3 37 32 37 35 0 36 -1 36
-40z m11 -153 c-1 -4 -3 -7 -6 -7 -3 0 -18 0 -35 0 -32 0 -41 16 -12 22 20 5
54 -5 53 -15z m-25 -147 c12 0 24 -6 27 -12 3 -9 -9 -13 -41 -13 -36 0 -46 4
-48 18 -2 15 2 18 19 13 12 -3 32 -6 43 -6z"/>
<path d="M330 1550 c-78 -8 -134 -41 -177 -103 l-28 -42 0 -592 0 -591 31 -44
c17 -23 51 -55 75 -70 l44 -27 723 -3 722 -3 -2 224 c-2 159 -6 225 -15 228
-8 3 -11 -50 -11 -198 -1 -111 -5 -206 -9 -210 -11 -11 -1373 -17 -1373 -6 0
4 -6 7 -12 5 -21 -3 -56 12 -62 27 -3 8 -11 15 -18 15 -19 0 -41 37 -25 43 7
2 2 15 -16 36 -29 34 -43 73 -33 90 4 5 2 12 -3 16 -6 3 -8 11 -6 18 9 26 11
97 3 97 -5 0 -4 9 2 20 6 11 7 20 3 20 -4 0 -8 20 -8 44 0 24 2 43 5 41 6 -4
3 411 -3 470 -3 28 1 44 12 53 13 11 13 12 1 6 -11 -5 -12 -4 -4 5 8 9 8 22
-2 49 -22 63 -16 68 29 22 24 -25 51 -51 60 -57 24 -19 94 -32 167 -33 37 0
71 -5 78 -12 14 -14 41 -20 62 -12 23 8 -15 27 -39 19 -21 -6 -36 19 -71 124
-24 72 -31 244 -11 294 6 16 11 33 11 38 0 10 -1 10 -100 -1z m34 -36 c12 -5
14 -20 9 -87 -3 -57 0 -104 11 -152 17 -74 23 -98 26 -102 1 -2 3 -13 3 -25 2
-29 -35 -35 -109 -19 -54 13 -134 70 -134 97 0 9 -4 13 -9 10 -17 -11 0 148
20 184 35 63 133 113 183 94z"/>
<path d="M1585 1551 c-2 -1 1 -15 7 -30 6 -14 11 -75 11 -136 0 -94 -5 -121
-28 -185 -14 -41 -29 -82 -32 -91 -3 -11 -15 -16 -35 -15 -18 0 -33 -5 -36
-13 -3 -10 2 -13 21 -9 15 3 24 2 22 -3 -3 -4 0 -11 6 -15 7 -4 9 -3 6 3 -3 5
3 17 14 26 14 13 38 17 94 17 85 0 103 15 23 19 -47 2 -106 20 -69 21 8 0 11
3 8 7 -4 3 -3 11 2 17 21 26 42 145 41 236 -1 52 -1 101 -1 108 1 10 48 12
218 10 198 -3 218 -5 221 -20 3 -16 -5 -18 -55 -18 -37 0 -67 -6 -81 -16 -21
-14 -23 -23 -20 -86 1 -38 6 -72 11 -75 13 -8 78 -10 307 -13 113 -1 199 -4
193 -7 -7 -3 -13 -9 -13 -14 0 -6 6 -7 13 -3 9 5 9 4 0 -6 -8 -9 -46 -12 -131
-11 -115 2 -121 1 -136 -21 -21 -29 -22 -121 -1 -138 8 -7 13 -15 10 -19 -2
-4 15 -7 37 -7 36 1 41 -2 44 -24 3 -19 2 -22 -6 -10 -9 13 -10 13 -10 0 0
-13 -1 -13 -10 0 -7 11 -5 17 8 22 15 6 15 7 1 7 -9 1 -23 -7 -30 -16 -10 -11
-10 -14 -1 -9 7 4 12 1 12 -9 0 -14 -3 -14 -31 1 -17 8 -29 11 -25 6 3 -6 -56
-9 -158 -9 -198 1 -216 -5 -216 -79 0 -25 8 -59 17 -75 l17 -29 231 -1 c126
-1 274 -1 327 0 88 2 98 0 108 -19 6 -11 9 -20 8 -20 -2 0 -58 -1 -125 -2
-110 -1 -124 -4 -147 -23 -22 -19 -26 -31 -26 -75 0 -75 20 -89 130 -90 94 0
127 -11 98 -34 -14 -10 -87 -12 -341 -11 -178 1 -329 5 -335 9 -9 5 -12 74
-12 263 1 140 -1 258 -4 261 -4 3 -6 -6 -6 -19 0 -13 -1 -142 -2 -287 l-3
-262 378 0 378 0 -3 57 -3 57 -120 1 -120 0 -2 58 -1 57 157 0 158 0 -1 55 0
55 -362 0 -361 0 0 60 0 60 239 0 238 0 0 55 0 55 -60 0 -60 0 0 60 0 60 145
-3 145 -3 0 58 0 59 -260 -3 -260 -3 0 61 0 61 91 -5 90 -5 -3 57 -3 58 -268
1 c-148 1 -270 0 -272 -2z"/>
<path d="M2230 1498 l0 -56 97 1 97 2 0 54 0 55 -97 0 -97 1 0 -57z m148 0 c3
-15 -5 -18 -52 -18 -42 0 -56 4 -56 14 0 19 17 25 65 23 29 -1 41 -7 43 -19z"/>
<path d="M1876 1229 c-21 -16 -26 -29 -26 -64 0 -24 5 -47 10 -50 6 -4 8 -11
5 -16 -4 -5 -1 -9 5 -9 6 0 9 -3 6 -8 -2 -4 7 -12 20 -19 13 -6 22 -8 19 -3
-6 10 16 19 33 13 6 -3 9 -10 5 -16 -5 -8 -2 -8 8 0 12 10 18 10 29 0 10 -9
11 -9 6 1 -4 7 -1 12 8 12 9 0 16 -5 16 -11 0 -5 5 -7 10 -4 6 4 8 10 5 15 -3
5 3 7 14 5 15 -3 18 0 14 12 -4 10 -2 14 4 10 14 -9 16 88 2 115 -18 34 -28
38 -100 38 -52 0 -72 -4 -93 -21z m171 -71 l2 -58 -82 0 -82 0 3 59 4 59 76
-2 77 -1 2 -57z"/>
<path d="M2390 1045 l0 -55 85 0 85 0 0 55 0 55 -85 0 -85 0 0 -55z m110 10
c26 0 17 -30 -10 -32 -33 -2 -60 6 -60 18 0 12 43 29 50 20 3 -3 12 -6 20 -6z"/>
<path d="M620 528 l0 -268 80 0 80 0 0 78 0 77 128 0 c147 1 184 12 228 70 23
31 29 50 32 104 5 99 -23 151 -103 187 -11 5 -116 11 -233 14 l-212 5 0 -267z
m398 232 c23 0 31 -4 26 -12 -5 -7 0 -9 14 -6 26 7 81 -50 83 -85 2 -59 -4
-114 -16 -137 -16 -30 -51 -61 -60 -52 -3 4 -10 0 -15 -8 -7 -12 -40 -16 -139
-20 -77 -3 -135 -10 -141 -16 -10 -10 -15 -40 -19 -116 -1 -15 -10 -18 -51
-18 l-50 0 0 234 0 235 33 3 c17 2 93 2 167 1 74 -2 150 -3 168 -3z"/>
<path d="M780 689 c0 -9 -6 -21 -13 -27 -17 -14 -14 -106 4 -128 11 -13 32
-15 122 -12 102 3 110 5 129 28 15 18 19 34 15 62 -8 60 -21 67 -138 69 -65 1
-107 6 -111 13 -5 7 -8 5 -8 -5z m224 -40 c15 -14 16 -65 3 -84 -13 -17 -31
-20 -121 -25 l-106 -5 0 65 0 65 109 -5 c60 -3 112 -8 115 -11z"/>
<path d="M1940 791 c0 -3 -10 -11 -22 -16 -19 -8 -23 -19 -26 -65 -4 -85 13
-100 115 -100 64 0 83 4 95 18 31 35 32 105 4 145 -10 13 -31 18 -90 21 -42 2
-76 1 -76 -3z m152 -87 c1 -31 1 -58 -1 -60 -2 -2 -42 -4 -88 -4 l-83 0 0 60
0 60 84 0 84 0 4 -56z"/>
<path d="M1633 640 c0 -36 2 -50 4 -32 2 17 2 47 0 65 -2 17 -4 3 -4 -33z"/>
<path d="M828 163 c39 -2 105 -2 145 0 39 1 7 3 -73 3 -80 0 -112 -2 -72 -3z"/>
</g>
</svg>
